<svg width="24" height="24" viewBox="0 0 24 24" fill="none" xmlns="http://www.w3.org/2000/svg">
<path d="M16.2255 18.5294C15.4015 19.3282 14.5018 19.202 13.6358 18.8237C12.7193 18.4369 11.8785 18.4201 10.9115 18.8237C9.70073 19.345 9.0617 19.1936 8.3386 18.5294C4.23539 14.3001 4.84078 7.85937 9.49893 7.62394C10.634 7.6828 11.4244 8.24615 12.0887 8.2966C13.0808 8.0948 14.031 7.51463 15.0904 7.59031C16.36 7.6912 17.3186 8.1957 17.9492 9.10378C15.3258 10.6761 15.948 14.1319 18.3528 15.0988C17.8735 16.3601 17.2513 17.6129 16.2171 18.5378L16.2255 18.5294ZM12.0046 7.57349C11.8785 5.69846 13.4003 4.15135 15.1492 4C15.3931 6.16932 13.1817 7.78369 12.0046 7.57349Z" fill="#1F1F1F"/>
</svg>
