<svg width="24" height="24" viewBox="0 0 24 24" fill="none" xmlns="http://www.w3.org/2000/svg">
<path fill-rule="evenodd" clip-rule="evenodd" d="M17.8325 6.16749C18.1449 6.47991 18.1449 6.98644 17.8325 7.29886L13.1314 12L17.8325 16.7012C18.1449 17.0136 18.1449 17.5201 17.8325 17.8325C17.5201 18.145 17.0136 18.145 16.7012 17.8325L12 13.1314L7.29884 17.8325C6.98643 18.145 6.47989 18.145 6.16747 17.8325C5.85505 17.5201 5.85506 17.0136 6.16747 16.7012L10.8686 12L6.16747 7.29886C5.85505 6.98644 5.85505 6.47991 6.16747 6.16749C6.47989 5.85507 6.98643 5.85507 7.29884 6.16749L12 10.8686L16.7012 6.16749C17.0136 5.85507 17.5201 5.85507 17.8325 6.16749Z" fill="black"/>
</svg>
