<svg width="30" height="30" viewBox="0 0 30 30" fill="none" xmlns="http://www.w3.org/2000/svg">
<path fill-rule="evenodd" clip-rule="evenodd" d="M9.74301 15.0696L14.4742 19.8008C14.7646 20.0911 15.2353 20.0911 15.5256 19.8008L20.2569 15.0696C20.5472 14.7792 20.5472 14.3085 20.2569 14.0182C19.9665 13.7278 19.4958 13.7278 19.2055 14.0182L17.4744 15.7492L16.6089 16.6148C16.3214 16.9022 16.0695 17.2232 15.8585 17.5707L15.7117 17.8123C15.6887 17.8503 15.6302 17.8321 15.6328 17.7878L15.7434 15.846V14.2118V10.9433V6.87479C15.7434 6.4642 15.4105 6.13135 14.9999 6.13135C14.5893 6.13135 14.2565 6.4642 14.2565 6.87479L14.2565 10.9433V14.2118V15.846L14.3631 17.8508C14.3646 17.8787 14.3278 17.8899 14.3135 17.866L14.138 17.5727C13.9293 17.2239 13.6784 16.9022 13.391 16.6148L12.5254 15.7492L10.7944 14.0182C10.5041 13.7278 10.0333 13.7278 9.74301 14.0182C9.45267 14.3085 9.45267 14.7792 9.74301 15.0696ZM6.75 17.8687C6.75 17.4544 6.41421 17.1187 6 17.1187C5.58579 17.1187 5.25 17.4544 5.25 17.8687V21.8687C5.25 22.598 5.53973 23.2975 6.05546 23.8132C6.57118 24.3289 7.27065 24.6187 8 24.6187H22C22.7293 24.6187 23.4288 24.3289 23.9445 23.8132C24.4603 23.2975 24.75 22.598 24.75 21.8687V17.8687C24.75 17.4544 24.4142 17.1187 24 17.1187C23.5858 17.1187 23.25 17.4544 23.25 17.8687V21.8687C23.25 22.2002 23.1183 22.5181 22.8839 22.7525C22.6495 22.987 22.3315 23.1187 22 23.1187H8C7.66848 23.1187 7.35054 22.987 7.11612 22.7525C6.8817 22.5181 6.75 22.2002 6.75 21.8687V17.8687Z" fill="#1F1F1F"/>
</svg>
