<svg width="24" height="24" viewBox="0 0 24 24" fill="none" xmlns="http://www.w3.org/2000/svg">
<path d="M7.19995 16V7.99995C7.19995 7.55812 7.55812 7.19995 7.99995 7.19995C8.44178 7.19995 8.79995 7.55812 8.79995 7.99995V16C8.79995 16.4418 8.44178 16.8 7.99995 16.8C7.55812 16.8 7.19995 16.4418 7.19995 16ZM16.2343 7.43433C16.5467 7.12191 17.0532 7.12191 17.3656 7.43433C17.678 7.74675 17.678 8.25316 17.3656 8.56558L13.9312 12L17.3656 15.4343C17.678 15.7467 17.678 16.2532 17.3656 16.5656C17.0532 16.878 16.5467 16.878 16.2343 16.5656L12.2343 12.5656C11.9219 12.2532 11.9219 11.7467 12.2343 11.4343L16.2343 7.43433Z" fill="#1F1F1F"/>
</svg>
