<svg width="24" height="25" viewBox="0 0 24 25" fill="none" xmlns="http://www.w3.org/2000/svg">
<path fill-rule="evenodd" clip-rule="evenodd" d="M9.6 6.66667H5.6V16.6667H8.82197C8.97577 15.2174 9.92238 14.0171 11.2 13.5467V8.33333C11.2 7.41286 10.4837 6.66667 9.6 6.66667ZM12.8 13.3562C14.4686 13.5484 15.7936 14.9285 15.978 16.6667H18.4V6.66667H14.4C13.5163 6.66667 12.8 7.41286 12.8 8.33333V13.3562ZM15.795 18.3333H18.4H20V16.6667V6.66667V5H18.4H14.4C13.4442 5 12.5864 5.43646 12 6.12848C11.4136 5.43646 10.5558 5 9.6 5H5.6H4V6.66667V16.6667V18.3333H5.6H9.00497C9.21537 18.9532 9.57765 19.498 10.0444 19.9191L10.0444 20.8333L11.6 20.8333V22.5H13.2V20.8333L14.7555 20.8333L14.7555 19.9192C15.2223 19.498 15.5846 18.9532 15.795 18.3333ZM13.2 20.8333H11.6444L11.6444 19.5089L11.6445 19.0639L11.2895 18.8163C10.7514 18.4412 10.4 17.8049 10.4 17.0833C10.4 15.9327 11.2954 15 12.4 15C13.5046 15 14.4 15.9327 14.4 17.0833C14.4 17.8049 14.0486 18.4412 13.5105 18.8163L13.1556 19.0639L13.1556 19.5088L13.1555 20.8333L13.2 20.8333ZM9.6 12.5H7.2V10.8333H9.6V12.5ZM7.2 10H9.6V8.33333H7.2V10Z" fill="#1F1F1F"/>
</svg>
