<svg width="24" height="24" viewBox="0 0 24 24" fill="none" xmlns="http://www.w3.org/2000/svg">
<path d="M16.8 16V7.99995C16.8 7.55812 16.4419 7.19995 16 7.19995C15.5582 7.19995 15.2 7.55812 15.2 7.99995V16C15.2 16.4418 15.5582 16.8 16 16.8C16.4419 16.8 16.8 16.4418 16.8 16ZM7.76567 7.43433C7.45325 7.12191 6.94684 7.12191 6.63442 7.43433C6.322 7.74675 6.322 8.25316 6.63442 8.56558L10.0688 12L6.63442 15.4343C6.322 15.7467 6.322 16.2532 6.63442 16.5656C6.94684 16.878 7.45325 16.878 7.76567 16.5656L11.7657 12.5656C12.0781 12.2532 12.0781 11.7467 11.7657 11.4343L7.76567 7.43433Z" fill="#1F1F1F"/>
</svg>
