<svg width="64" height="64" viewBox="0 0 64 64" fill="none" xmlns="http://www.w3.org/2000/svg">
<g clip-path="url(#clip0_249_1632)">
<path d="M32.0625 63.875C43.2045 63.875 48.7757 63.8754 53.0361 61.7178C56.834 59.7944 59.9194 56.709 61.8428 52.9111C64.0004 48.6507 64 43.0795 64 31.9375C64 20.7955 64.0004 15.2243 61.8428 10.9639C59.9194 7.166 56.834 4.08061 53.0361 2.15723C48.7757 -0.000362396 43.2045 0 32.0625 0C20.9205 0 15.3493 -0.000362396 11.0889 2.15723C7.291 4.08061 4.20561 7.166 2.28223 10.9639C0.124637 15.2243 0.125 20.7955 0.125 31.9375C0.125 43.0795 0.124637 48.6507 2.28223 52.9111C4.20561 56.709 7.291 59.7944 11.0889 61.7178C15.3493 63.8754 20.9205 63.875 32.0625 63.875Z" fill="#1F1F1F"/>
<path fill-rule="evenodd" clip-rule="evenodd" d="M18.403 9.37545H-2.55127V13.606H5.74934V31.8306H10.0718V13.606H18.403V9.37545ZM40.09 9.37545H20.3302V31.8306H40.09V27.5694H24.6527V22.7642H39.9674V18.5031H24.6527V13.606H40.09V9.37545ZM47.4851 9.37545H41.9886L52.7803 23.5351V31.8306H57.1334V23.4547L67.8639 9.37545H62.4301L54.9424 19.1367L47.4851 9.37545ZM19.6623 33.5998C16.3075 33.5998 13.4996 34.5904 11.3721 36.6713L11.3697 36.6736L11.3673 36.6759C9.24091 38.7787 8.25092 41.6762 8.25092 45.1949C8.25092 48.6963 9.24251 51.5891 11.3625 53.7091L11.3672 53.7139L11.3721 53.7186C13.4996 55.7994 16.3075 56.79 19.6623 56.79C22.3138 56.79 24.6551 56.095 26.6248 54.6583C28.6207 53.2024 29.9023 51.1513 30.4914 48.5908L30.7623 47.4136L26.5376 46.4278L26.2861 47.6452C25.9525 49.2606 25.2047 50.4337 24.0664 51.2585L24.063 51.261L24.0596 51.2635C22.9135 52.1063 21.4717 52.5595 19.6623 52.5595C17.2867 52.5595 15.6019 51.8895 14.4356 50.6904C13.2685 49.4904 12.604 47.7186 12.604 45.1949C12.604 42.6732 13.2674 40.9023 14.4328 39.7023C15.6233 38.4971 17.3131 37.8303 19.6623 37.8303C21.389 37.8303 22.7496 38.2322 23.8153 38.9648L23.8189 38.9673L23.8225 38.9698C24.9042 39.702 25.7293 40.7919 26.2689 42.3208L26.6256 43.3315L30.828 42.4055L30.3581 41.107C29.5058 38.7521 28.1246 36.8813 26.1985 35.5585C24.2869 34.2457 22.0938 33.5998 19.6623 33.5998ZM45.3326 33.8755H40.9924L29.6962 56.3306H34.6146L37.6937 50.2047H48.7385L51.8715 56.3306H56.6975L45.3326 33.8755ZM46.5749 45.9741H39.8201L43.1682 39.313L46.5749 45.9741Z" fill="white"/>
</g>
<defs>
<clipPath id="clip0_249_1632">
<rect width="64" height="64" rx="20" transform="matrix(1 0 0 -1 0 64)" fill="white"/>
</clipPath>
</defs>
</svg>
