<svg width="18" height="18" viewBox="0 0 18 18" fill="none" xmlns="http://www.w3.org/2000/svg">
<g clip-path="url(#clip0_448_722)">
<mask id="mask0_448_722" style="mask-type:alpha" maskUnits="userSpaceOnUse" x="4" y="5" width="61" height="60">
<rect x="4.95117" y="5" width="60" height="60" fill="#D9D9D9"/>
</mask>
<g mask="url(#mask0_448_722)">
<path d="M8.73779 15.625L4.23779 12.25C4.08154 12.1354 3.95915 11.9896 3.87061 11.8125C3.78206 11.6354 3.73779 11.4479 3.73779 11.25V3.75C3.73779 3.40625 3.86019 3.11198 4.10498 2.86719C4.34977 2.6224 4.64404 2.5 4.98779 2.5H12.4878C12.8315 2.5 13.1258 2.6224 13.3706 2.86719C13.6154 3.11198 13.7378 3.40625 13.7378 3.75V11.25C13.7378 11.4479 13.6935 11.6354 13.605 11.8125C13.5164 11.9896 13.394 12.1354 13.2378 12.25L8.73779 15.625ZM8.08154 10.625L11.6128 7.09375L10.7378 6.1875L8.08154 8.84375L6.76904 7.53125L5.86279 8.40625L8.08154 10.625Z" fill="#1A1A1A" fill-opacity="0.4"/>
</g>
</g>
<defs>
<clipPath id="clip0_448_722">
<rect width="17.5" height="17.5" fill="white"/>
</clipPath>
</defs>
</svg>
