<svg width="18" height="18" viewBox="0 0 18 18" fill="none" xmlns="http://www.w3.org/2000/svg">
<path fill-rule="evenodd" clip-rule="evenodd" d="M7.02686 2.44772C6.91382 2.54917 6.79548 2.64456 6.67235 2.73348C6.45892 2.87672 6.219 2.97555 5.96691 3.02568C5.85733 3.04717 5.74274 3.05648 5.51428 3.07438C4.94062 3.12022 4.65343 3.14314 4.41422 3.22765C4.14064 3.32408 3.89215 3.48061 3.68703 3.68573C3.48191 3.89085 3.32538 4.13934 3.22894 4.41293C3.14443 4.65213 3.12152 4.93932 3.07568 5.51298C3.06746 5.66461 3.0512 5.8157 3.02698 5.96561C2.97685 6.21771 2.87801 6.45763 2.73478 6.67105C2.67247 6.76415 2.59799 6.85153 2.44902 7.02556C2.07589 7.46386 1.88897 7.68301 1.77939 7.91219C1.52658 8.44217 1.52658 9.05808 1.77939 9.58806C1.88897 9.81724 2.07589 10.0364 2.44902 10.4747C2.59799 10.6487 2.67247 10.7361 2.73478 10.8292C2.87801 11.0426 2.97685 11.2825 3.02698 11.5346C3.04847 11.6442 3.05778 11.7588 3.07568 11.9873C3.12152 12.5609 3.14443 12.8481 3.22894 13.0873C3.32538 13.3609 3.48191 13.6094 3.68703 13.8145C3.89215 14.0196 4.14064 14.1762 4.41422 14.2726C4.65343 14.3571 4.94062 14.38 5.51428 14.4259C5.74274 14.4438 5.85733 14.4531 5.96691 14.4746C6.219 14.5247 6.45892 14.6242 6.67235 14.7668C6.76545 14.8291 6.85282 14.9036 7.02686 15.0525C7.46516 15.4257 7.68431 15.6126 7.91349 15.7222C8.44346 15.975 9.05938 15.975 9.58936 15.7222C9.81853 15.6126 10.0377 15.4257 10.476 15.0525C10.65 14.9036 10.7374 14.8291 10.8305 14.7668C11.0439 14.6235 11.2838 14.5247 11.5359 14.4746C11.6455 14.4531 11.7601 14.4438 11.9886 14.4259C12.5622 14.38 12.8494 14.3571 13.0886 14.2726C13.3622 14.1762 13.6107 14.0196 13.8158 13.8145C14.0209 13.6094 14.1775 13.3609 14.2739 13.0873C14.3584 12.8481 14.3813 12.5609 14.4272 11.9873C14.4451 11.7588 14.4544 11.6442 14.4759 11.5346C14.526 11.2825 14.6255 11.0426 14.7681 10.8292C14.8304 10.7361 14.9049 10.6487 15.0538 10.4747C15.427 10.0364 15.6139 9.81724 15.7235 9.58806C15.9763 9.05808 15.9763 8.44217 15.7235 7.91219C15.6139 7.68301 15.427 7.46386 15.0538 7.02556C14.9524 6.91252 14.857 6.79419 14.7681 6.67105C14.6247 6.45766 14.5254 6.21784 14.4759 5.96561C14.4516 5.8157 14.4354 5.66461 14.4272 5.51298C14.3813 4.93932 14.3584 4.65213 14.2739 4.41293C14.1775 4.13934 14.0209 3.89085 13.8158 3.68573C13.6107 3.48061 13.3622 3.32408 13.0886 3.22765C12.8494 3.14314 12.5622 3.12022 11.9886 3.07438C11.8369 3.06616 11.6858 3.0499 11.5359 3.02568C11.2837 2.97614 11.0439 2.8768 10.8305 2.73348C10.7074 2.64456 10.589 2.54917 10.476 2.44772C10.0377 2.07459 9.81853 1.88767 9.58936 1.77809C9.32776 1.65288 9.04144 1.58789 8.75142 1.58789C8.46141 1.58789 8.17508 1.65288 7.91349 1.77809C7.68431 1.88767 7.46516 2.07459 7.02686 2.44772ZM11.4951 6.00715C11.6042 6.11644 11.6654 6.26454 11.6654 6.41895C11.6654 6.57336 11.6042 6.72146 11.4951 6.83076L6.83206 11.4945C6.77892 11.5527 6.71456 11.5995 6.64285 11.6321C6.57113 11.6646 6.49356 11.6824 6.41481 11.6841C6.33606 11.6859 6.25777 11.6717 6.18466 11.6424C6.11155 11.6131 6.04515 11.5692 5.98945 11.5135C5.93375 11.4578 5.88992 11.3914 5.86059 11.3183C5.83127 11.2452 5.81707 11.1669 5.81885 11.0882C5.82062 11.0094 5.83834 10.9318 5.87093 10.8601C5.90351 10.7884 5.95029 10.7241 6.00845 10.6709L10.6708 6.00786C10.7801 5.89879 10.9282 5.83753 11.0826 5.83753C11.237 5.83753 11.3851 5.89879 11.4944 6.00786M11.4708 10.6938C11.4708 10.8999 11.3889 11.0976 11.2432 11.2433C11.0974 11.389 10.8998 11.4709 10.6937 11.4709C10.4876 11.4709 10.29 11.389 10.1442 11.2433C9.99852 11.0976 9.91665 10.8999 9.91665 10.6938C9.91665 10.4878 9.99852 10.2901 10.1442 10.1444C10.29 9.99865 10.4876 9.91678 10.6937 9.91678C10.8998 9.91678 11.0974 9.99865 11.2432 10.1444C11.3889 10.2901 11.4708 10.4878 11.4708 10.6938ZM6.80842 7.58561C7.01451 7.58561 7.21216 7.50374 7.35788 7.35802C7.50361 7.21229 7.58548 7.01464 7.58548 6.80855C7.58548 6.60247 7.50361 6.40482 7.35788 6.25909C7.21216 6.11337 7.01451 6.0315 6.80842 6.0315C6.60233 6.0315 6.40469 6.11337 6.25896 6.25909C6.11323 6.40482 6.03136 6.60247 6.03136 6.80855C6.03136 7.01464 6.11323 7.21229 6.25896 7.35802C6.40469 7.50374 6.60233 7.58561 6.80842 7.58561Z" fill="#1A1A1A" fill-opacity="0.4"/>
</svg>
