<svg width="18" height="18" viewBox="0 0 18 18" fill="none" xmlns="http://www.w3.org/2000/svg">
<path fill-rule="evenodd" clip-rule="evenodd" d="M13.4169 3.32495C12.4826 3.32495 11.7252 4.08234 11.7252 5.01662V12.4832C11.7252 13.4175 12.4826 14.1749 13.4169 14.1749C14.3511 14.1749 15.1085 13.4175 15.1085 12.4832V5.01662C15.1085 4.08234 14.3511 3.32495 13.4169 3.32495ZM8.75019 5.71981C7.81591 5.71981 7.05852 6.4772 7.05852 7.41148V12.4832C7.05852 13.4175 7.81591 14.1749 8.75019 14.1749C9.68447 14.1749 10.4419 13.4175 10.4419 12.4832V7.41148C10.4419 6.4772 9.68447 5.71981 8.75019 5.71981ZM4.08352 7.63929C3.14923 7.63929 2.39185 8.39668 2.39185 9.33096V12.4832C2.39185 13.4175 3.14923 14.1749 4.08352 14.1749C5.0178 14.1749 5.77519 13.4175 5.77519 12.4832V9.33096C5.77519 8.39668 5.0178 7.63929 4.08352 7.63929Z" fill="#1A1A1A" fill-opacity="0.4"/>
</svg>
