<svg width="24" height="25" viewBox="0 0 24 25" fill="none" xmlns="http://www.w3.org/2000/svg">
<path d="M12.2755 19.5966L11.1442 20.7751L3.6805 13.0005L3.45083 12.7613L3.22456 12.5255L3.45083 12.2898L3.67711 12.0541L11.1442 4.27597L12.2755 5.45448L7.73317 10.1861C7.18082 10.7615 6.56281 11.2641 5.89298 11.6827C5.8036 11.7386 5.85246 11.882 5.95565 11.8666L7.12262 11.6929C7.35205 11.6588 7.58351 11.6417 7.81527 11.6417L19.9266 11.642V13.4097L7.81515 13.4094C7.58348 13.4094 7.35209 13.3923 7.12274 13.3582L5.95565 13.1845C5.85246 13.1691 5.8036 13.3125 5.89298 13.3684C6.56281 13.787 7.18082 14.2896 7.73317 14.865L12.2755 19.5966Z" fill="#999999"/>
</svg>
