<svg width="18" height="18" viewBox="0 0 18 18" fill="none" xmlns="http://www.w3.org/2000/svg">
<path d="M9.65967 14.889C11.7942 14.4616 14.5542 12.9259 14.5542 8.95527C14.5542 5.34243 11.9096 2.93614 10.0079 1.83064C9.58524 1.58482 9.09156 1.9078 9.09156 2.39602V3.64423C9.09156 4.62887 8.67776 6.42607 7.52788 7.17377C6.94065 7.55547 6.30562 6.98395 6.23461 6.28746L6.17588 5.71525C6.1076 5.05018 5.43023 4.64663 4.89899 5.05222C3.94372 5.77944 2.94611 7.05632 2.94611 8.95459C2.94611 13.8102 6.55758 15.0249 8.36298 15.0249C8.46859 15.0249 8.57875 15.0215 8.69347 15.0147C7.80169 14.9389 6.36025 14.3858 6.36025 12.5968C6.36025 11.197 7.38107 10.2513 8.15677 9.79037C8.36571 9.66746 8.60948 9.82792 8.60948 10.0703V10.4732C8.60948 10.7805 8.72898 11.2619 9.01235 11.591C9.33328 11.9638 9.80375 11.5732 9.8413 11.083C9.85359 10.9286 10.0093 10.8303 10.1431 10.9082C10.5808 11.1642 11.14 11.7105 11.14 12.5968C11.14 13.9952 10.3691 14.6384 9.65967 14.889Z" fill="#1A1A1A" fill-opacity="0.4"/>
</svg>
