<svg width="24" height="25" viewBox="0 0 24 25" fill="none" xmlns="http://www.w3.org/2000/svg">
<path d="M11.7245 19.5966L12.8558 20.7751L20.3195 13.0005L20.5492 12.7613L20.7754 12.5255L20.5492 12.2898L20.3229 12.0541L12.8558 4.27597L11.7245 5.45448L16.2668 10.1861C16.8192 10.7615 17.4372 11.2641 18.107 11.6827C18.1964 11.7386 18.1475 11.882 18.0444 11.8666L16.8774 11.6929C16.6479 11.6588 16.4165 11.6417 16.1847 11.6417L4.07337 11.642V13.4097L16.1848 13.4094C16.4165 13.4094 16.6479 13.3923 16.8773 13.3582L18.0444 13.1845C18.1475 13.1691 18.1964 13.3125 18.107 13.3684C17.4372 13.787 16.8192 14.2896 16.2668 14.865L11.7245 19.5966Z" fill="white"/>
</svg>
