<svg width="24" height="25" viewBox="0 0 24 25" fill="none" xmlns="http://www.w3.org/2000/svg">
<path fill-rule="evenodd" clip-rule="evenodd" d="M5.05876 8.37692L17.7185 3.98139C18.1754 3.82307 19.0307 3.71479 19.7186 4.39285C20.4099 5.07436 20.3494 5.97417 20.2157 6.46147L16.5994 19.644C16.5992 19.6448 16.5989 19.6455 16.5987 19.6463C16.5414 19.8563 16.4366 20.1464 16.2305 20.4217C16.0202 20.7028 15.6006 21.0922 14.9555 21.1352C14.3146 21.1779 13.8539 20.8515 13.614 20.6088C13.3759 20.3679 13.2338 20.0984 13.1486 19.8995L13.1476 19.8972L11.5268 16.0977C11.1676 15.2558 11.0451 14.3445 11.1486 13.4615C10.3754 13.6025 9.56952 13.5459 8.80298 13.2798L5.0521 11.9772C5.05208 11.9772 5.05212 11.9772 5.0521 11.9772C4.86594 11.9126 4.60021 11.7978 4.34943 11.5839C4.10579 11.3762 3.69416 10.906 3.69803 10.1693C3.70187 9.43539 4.11551 8.97116 4.35706 8.76716C4.60713 8.55596 4.87189 8.4418 5.05876 8.37692ZM11.7979 11.4935C11.9517 11.4102 12.1 11.3133 12.241 11.2031L14.8614 9.15588C15.0835 8.98242 15.364 9.2746 15.1974 9.50587L13.3532 12.0673C13.269 12.1842 13.193 12.3058 13.1252 12.4311C13.0804 12.5138 13.0392 12.5983 13.0016 12.6841C12.626 13.5421 12.6126 14.5386 12.9889 15.4209L14.6097 19.2204C14.7583 19.5672 14.9606 19.5548 15.0601 19.1893L18.6773 6.0036C18.7754 5.64573 18.5745 5.44124 18.2236 5.56283L5.71494 9.9059L5.5647 9.95806C5.20855 10.0817 5.21187 10.2759 5.55807 10.3961L5.7232 10.4534L9.309 11.6986C10.1379 11.9865 11.0358 11.9066 11.7979 11.4935Z" fill="#1F1F1F"/>
</svg>
