<svg width="24" height="24" viewBox="0 0 24 24" fill="none" xmlns="http://www.w3.org/2000/svg">
<g clip-path="url(#clip0_448_658)">
<path d="M13.4741 8.39133C12.2266 8.91087 9.73154 9.98522 5.99214 11.6144C5.38602 11.8549 5.06692 12.0922 5.03805 12.3231C4.98995 12.7128 5.47902 12.8667 6.14448 13.0768L6.42509 13.165C7.07933 13.3783 7.96126 13.6268 8.41826 13.6364C8.83517 13.646 9.29859 13.4761 9.81011 13.1233C13.3042 10.7645 15.1081 9.57312 15.2204 9.54746C15.3005 9.52822 15.4128 9.50577 15.4865 9.57312C15.5619 9.63886 15.5539 9.76554 15.5459 9.79921C15.4978 10.0061 13.5784 11.7892 12.5858 12.7128C12.2763 13.0014 12.0566 13.2051 12.0117 13.2516C11.9129 13.3526 11.8124 13.4521 11.7103 13.5498C11.1009 14.1367 10.6455 14.5761 11.7343 15.2945C12.2587 15.6408 12.6788 15.9246 13.0973 16.2101C13.5527 16.5211 14.0081 16.8306 14.5982 17.2187C14.7473 17.3149 14.8916 17.4191 15.0311 17.5185C15.5619 17.897 16.0414 18.2369 16.6299 18.1824C16.973 18.1503 17.3274 17.8296 17.507 16.8675C17.9319 14.5953 18.7673 9.67414 18.9598 7.6457C18.9715 7.47708 18.9645 7.30767 18.9389 7.14059C18.9238 7.00577 18.8586 6.88156 18.7561 6.79263C18.6102 6.69191 18.4363 6.63973 18.259 6.6435C17.778 6.65152 17.0355 6.90968 13.4741 8.39133Z" fill="#1F1F1F"/>
</g>
<defs>
<clipPath id="clip0_448_658">
<rect width="24" height="24" fill="white"/>
</clipPath>
</defs>
</svg>
